<?xml version="1.0" encoding="iso-8859-1"?>
<!-- Generator: Adobe Illustrator 19.0.0, SVG Export Plug-In . SVG Version: 6.00 Build 0)  -->
<svg version="1.1" id="Capa_1" xmlns="http://www.w3.org/2000/svg" xmlns:xlink="http://www.w3.org/1999/xlink" x="0px" y="0px"
	 viewBox="0 0 512 512" style="enable-background:new 0 0 512 512;" xml:space="preserve">
<g>
	<path style="fill:#18A7FC;" d="M249.188,438.657h-2.263L226.143,300.84c5.953-0.901,11.033-5.348,12.41-11.581
		c1.789-8.089-3.316-16.097-11.406-17.886c-13.204-2.92-26.816-4.4-40.461-4.4C83.748,266.973,0,350.719,0,453.657
		c0,8.284,6.717,15,15,15h234.188c8.284,0,15-6.716,15-15S257.473,438.657,249.188,438.657z"/>
	<path style="fill:#18A7FC;" d="M249.188,438.657h-2.263L226.143,300.84c5.953-0.901,11.033-5.348,12.41-11.581
		c1.789-8.089-3.316-16.097-11.406-17.886c-13.204-2.92-26.816-4.4-40.461-4.4v201.684h62.503c8.284,0,15-6.716,15-15
		S257.473,438.657,249.188,438.657z"/>
</g>
<path style="fill:#FE73B1;" d="M352.402,192.8c-88.005,0-159.601,71.594-159.601,159.6c0,88.003,71.597,159.6,159.601,159.6
	C440.405,512,512,440.403,512,352.4C512,264.395,440.405,192.8,352.402,192.8z"/>
<path style="fill:#FD0F7F;" d="M352.402,192.8H352.4V512h0.002C440.405,512,512,440.403,512,352.4
	C512,264.395,440.405,192.8,352.402,192.8z"/>
<path style="fill:#FEB756;" d="M186.685,0c-53.474,0-96.977,43.505-96.977,96.98c0,53.476,43.504,96.981,96.977,96.981
	c53.476,0,96.98-43.506,96.98-96.981C283.666,43.505,240.161,0,186.685,0z"/>
<path style="fill:#B2DCFE;" d="M400.601,337.4h-33.198v-33.201c0-8.283-6.717-15-15-15c-8.285,0-15,6.717-15,15V337.4h-33.201
	c-8.285,0-15,6.715-15,15c0,8.283,6.715,15,15,15h33.201v33.2c0,8.285,6.715,15,15,15c8.283,0,15-6.715,15-15v-33.2h33.198
	c8.284,0,15-6.717,15-15C415.601,344.115,408.885,337.4,400.601,337.4z"/>
<path style="fill:#FE8821;" d="M186.685,0v193.961c53.476,0,96.98-43.506,96.98-96.981C283.666,43.505,240.161,0,186.685,0z"/>
<path style="fill:#86CAFD;" d="M400.601,337.4h-33.198v-33.201c0-8.283-6.717-15-15-15H352.4v126.4h0.002c8.283,0,15-6.715,15-15
	V367.4H400.6c8.284,0,15-6.717,15-15C415.601,344.115,408.885,337.4,400.601,337.4z"/>
<g>
</g>
<g>
</g>
<g>
</g>
<g>
</g>
<g>
</g>
<g>
</g>
<g>
</g>
<g>
</g>
<g>
</g>
<g>
</g>
<g>
</g>
<g>
</g>
<g>
</g>
<g>
</g>
<g>
</g>
</svg>
